# Blender 4.1.0
# www.blender.org
mtllib coolgun.mtl
o Plane.001
v 0.107193 0.777825 -1.417269
v 0.107193 -1.747408 0.317887
v 0.116309 0.778054 -1.529446
v 0.107193 -1.834989 -0.193990
v 0.107193 -1.263211 0.158449
v 0.107193 -1.327347 -0.324796
v 0.107193 -0.906719 -0.398630
v 0.107193 -0.910722 0.099263
v 0.107193 -0.909581 -0.501436
v 0.107193 -0.698997 -0.527819
v 0.107193 -0.492003 -0.518619
v 0.107193 -0.495010 0.049922
v 0.107193 -0.715353 0.080530
v 0.107193 -0.908301 0.144153
v 0.107193 -0.324971 -0.509960
v 0.107193 -0.203429 0.068306
v 0.111711 -0.130760 -0.459553
v 0.107193 -0.169984 0.193426
v 0.113220 -0.066385 -0.452712
v 0.107193 -0.159334 0.606716
v 0.115140 -0.001305 -0.482711
v 0.107193 -0.082719 0.653084
v 0.115849 0.042645 -0.544343
v 0.107193 0.007982 0.681278
v 0.116113 0.055163 -1.535868
v 0.107193 0.085878 0.701123
v 0.116216 0.229810 -1.536229
v 0.107193 0.179698 0.739815
v 0.116237 0.578630 -1.531826
v 0.107193 0.834459 1.713390
v 0.107193 0.182664 1.445488
v 0.107956 -0.483261 1.450505
v 0.107519 -0.950276 1.786665
v 0.107412 -0.010795 1.447443
v 0.107738 -0.869208 1.493207
v 0.107847 -0.497637 1.489897
v 0.107356 0.102649 1.783654
v 0.107303 0.085934 1.446466
v 0.107275 0.160367 1.842885
v 0.107193 0.848257 -1.357436
v 0.107193 0.854347 -1.292371
v 0.107193 0.952644 -1.293393
v 0.107193 0.948105 -0.817427
v 0.107193 0.844522 -0.818440
v 0.107193 0.836893 1.251490
v 0.107193 0.960370 1.255134
v 0.107193 0.955865 1.710269
v 0.107234 0.185679 2.009341
v 0.107213 0.754261 1.858768
v 0.107224 0.755726 1.967825
v 0.107229 0.044954 2.095021
v 0.107226 0.068401 2.154096
v 0.107225 0.269546 2.531810
v 0.107224 0.422436 2.064905
v 0.107225 0.416347 2.531977
v 0.107225 0.259174 2.107528
v 0.116226 0.237529 -1.618456
v 0.116232 0.418904 -1.618438
v 0.116234 0.555052 -3.229059
v 0.116233 0.417704 -3.220403
v 0.116233 0.620597 -3.229060
v 0.116233 0.629557 -3.575433
v 0.116233 -0.524144 -3.562444
v 0.116233 -0.525152 -3.417402
v 0.116233 -0.473700 -3.353539
v 0.116233 0.093232 -3.276148
v 0.116233 0.411335 -3.289407
v 0.109699 -0.120686 0.166213
v 0.108944 -0.147335 0.199705
v 0.108293 -0.142370 0.413358
v 0.110090 -0.081848 0.117400
v 0.110119 -0.074788 0.116182
v 0.107306 -0.082413 0.632355
v 0.107281 -0.095115 0.629357
v 0.107343 -0.138223 0.591773
v 0.110987 -0.043851 0.110844
v 0.107336 -0.081253 0.632629
v 0.111305 0.024448 0.099058
v 0.107387 0.008757 0.653873
v 0.111404 0.057308 0.093388
v 0.111358 0.065077 0.101895
v 0.107397 0.084862 0.671836
v 0.109527 0.077842 0.115871
v 0.107309 0.085478 0.671981
v 0.107477 0.149810 0.656615
v 0.107324 0.106997 0.677060
v 0.109309 0.155373 0.200757
v -0.111773 0.778089 -1.418414
v -0.102657 0.778317 -1.530591
v -0.111773 -1.747145 0.316742
v -0.111773 -1.834726 -0.195135
v -0.111773 -1.262947 0.157303
v -0.111773 -1.327083 -0.325941
v -0.111773 -0.906456 -0.399776
v -0.111773 -0.909317 -0.502581
v -0.111773 -0.698733 -0.528964
v -0.111773 -0.491740 -0.519764
v -0.111773 -0.494746 0.048777
v -0.111773 -0.715089 0.079384
v -0.111773 -0.324707 -0.511105
v -0.107255 -0.130497 -0.460698
v -0.105746 -0.066122 -0.453858
v -0.111773 -0.169721 0.192281
v -0.111773 -0.159070 0.605572
v -0.103826 -0.001042 -0.483856
v -0.111773 -0.082455 0.651939
v -0.103117 0.042908 -0.545488
v -0.111773 0.008246 0.680133
v -0.102853 0.055426 -1.537013
v -0.111773 0.086142 0.699978
v -0.102750 0.230074 -1.537374
v -0.102729 0.578894 -1.532973
v -0.111447 -0.950012 1.785519
v -0.111228 -0.868944 1.492062
v -0.111119 -0.497373 1.488750
v -0.111610 0.102913 1.782510
v -0.111773 0.182927 1.444343
v -0.111664 0.086198 1.445320
v -0.111692 0.160631 1.841739
v -0.111630 -0.080989 0.631483
v -0.111773 0.848520 -1.358581
v -0.111773 0.854611 -1.293516
v -0.111773 0.952908 -1.294539
v -0.111773 0.948369 -0.818572
v -0.111773 0.844786 -0.819585
v -0.111773 0.837157 1.250345
v -0.111773 0.960633 1.253988
v -0.111773 0.956128 1.709124
v -0.111732 0.185942 2.008195
v -0.111773 0.834723 1.712245
v -0.111753 0.754525 1.857622
v -0.111742 0.755990 1.966681
v -0.111737 0.045218 2.093874
v -0.111740 0.068664 2.152951
v -0.111742 0.422699 2.063761
v -0.111741 0.269810 2.530664
v -0.111741 0.416611 2.530833
v -0.111741 0.259438 2.106384
v -0.102740 0.237793 -1.619601
v -0.102735 0.419167 -1.619583
v -0.102732 0.555316 -3.230204
v -0.102733 0.417968 -3.221549
v -0.102733 0.620861 -3.230206
v -0.102733 0.629820 -3.576579
v -0.102733 -0.523881 -3.563591
v -0.102733 -0.524888 -3.418548
v -0.102734 -0.473436 -3.354686
v -0.109439 0.078106 0.114726
v -0.109657 0.155636 0.199612
v -0.102733 0.411599 -3.290553
v -0.111773 -0.910458 0.098117
v -0.110022 -0.147071 0.198559
v -0.110673 -0.142106 0.412213
v -0.109267 -0.120423 0.165067
v -0.108876 -0.081584 0.116255
v -0.108847 -0.074525 0.115037
v -0.102734 0.093496 -3.277292
v -0.111660 -0.082149 0.631209
v -0.111685 -0.094852 0.628211
v -0.111623 -0.137959 0.590627
v -0.107979 -0.043588 0.109698
v -0.111580 0.009021 0.652728
v -0.107661 0.024712 0.097913
v -0.107562 0.057572 0.092243
v -0.107608 0.065341 0.100750
v -0.111570 0.085125 0.670690
v -0.111657 0.085742 0.670836
v -0.111489 0.150074 0.655470
v -0.111642 0.107261 0.675915
v -0.111773 -0.908037 0.143008
v -0.111773 0.179962 0.738670
v -0.111010 -0.482997 1.449360
v -0.111554 -0.010532 1.446298
v -0.111773 -0.203165 0.067161
vn 1.0000 -0.0018 0.0070
vn 1.0000 -0.0022 0.0068
vn 1.0000 -0.0033 0.0054
vn 0.9973 0.0715 0.0179
vn -1.0000 0.0018 -0.0070
vn -1.0000 0.0022 -0.0070
vn -1.0000 0.0033 -0.0054
vn -0.9949 0.0823 0.0576
vn 0.0054 0.2297 -0.9732
vn -0.0047 0.2797 0.9601
vn 0.0042 -0.4187 -0.9081
vn -0.0012 -1.0000 0.0042
vn -0.0044 -0.7387 0.6741
vn -0.0052 -0.0011 1.0000
vn -0.0051 -0.5178 0.8555
vn 0.0054 0.2310 -0.9729
vn -0.0013 -0.9997 0.0244
vn 0.0021 -0.8142 -0.5806
vn 0.0042 -0.4309 -0.9024
vn -0.0007 -0.9956 -0.0935
vn -0.0054 -0.2968 0.9549
vn -0.0011 -0.9999 -0.0122
vn 0.0052 0.0001 -1.0000
vn -0.0011 -0.9999 -0.0126
vn -0.0014 -0.9996 0.0278
vn 0.0013 0.9999 -0.0139
vn -0.0054 -0.2469 0.9690
vn -0.0012 -1.0000 0.0007
vn 0.0052 -0.0021 -1.0000
vn -0.0052 -0.0000 1.0000
vn 0.0052 0.0119 -0.9999
vn -0.0023 0.7825 0.6226
vn 0.0011 0.9997 0.0259
vn 0.0002 -0.9639 -0.2663
vn 0.0038 -0.5200 -0.8541
vn 0.0052 -0.0113 -0.9999
vn 0.0052 -0.0089 -0.9999
vn -0.0015 -0.9985 0.0539
vn -0.0012 -1.0000 -0.0069
vn -0.0052 0.0029 1.0000
vn -0.0053 -0.3813 0.9245
vn -0.0042 -0.7787 0.6274
vn 0.0052 -0.0101 -0.9999
vn 0.0052 -0.0065 -1.0000
vn -0.0044 -0.7384 0.6744
vn -0.0045 -0.7162 0.6979
vn -0.0046 0.3132 0.9497
vn -0.0017 -0.9958 0.0919
vn -0.0053 -0.0629 0.9980
vn -0.0050 0.1656 0.9862
vn 0.0017 0.9956 -0.0932
vn 0.0007 -0.9394 -0.3428
vn 0.0013 0.9997 -0.0232
vn 0.0052 -0.0104 -0.9999
vn 0.0012 1.0000 0.0021
vn -0.0048 0.2371 0.9715
vn 0.0012 1.0000 0.0095
vn -0.0021 -0.9857 0.1686
vn 0.0011 0.9999 0.0130
vn -0.0049 0.1701 0.9854
vn -0.0052 -0.0098 0.9999
vn -0.0046 0.3128 0.9498
vn -0.0052 0.0416 0.9991
vn -0.0053 -0.1353 0.9908
vn 0.0012 1.0000 0.0037
vn 0.0049 -0.1729 -0.9849
vn 0.0047 0.6572 -0.7537
vn 0.0053 0.0295 -0.9996
vn 0.0050 -0.1243 -0.9922
vn 0.0011 1.0000 0.0099
vn 0.0053 0.0444 -0.9990
vn 0.0048 0.6474 -0.7621
vn -0.0049 0.1702 0.9854
vn -0.0020 -0.9886 0.1503
vn -0.0050 0.1376 0.9905
vn -0.0025 -0.9661 0.2582
vn -0.0015 0.8756 0.4830
vn 0.0053 0.0518 -0.9986
vn -0.0052 0.0257 0.9997
vn 0.0013 0.9999 -0.0134
vn 0.0054 0.2511 -0.9679
vn -0.0050 0.1701 0.9854
vn -0.0049 0.1700 0.9854
vn 0.0048 -0.2495 -0.9684
vn 0.0053 0.1055 -0.9944
vn -0.0044 -0.7384 0.6743
vn -0.0031 -0.9295 0.3689
vn -0.0013 -0.9997 0.0258
vn 0.9900 0.1409 0.0020
vn 1.0000 -0.0022 0.0070
vn 0.0010 0.2298 -0.9732
vn 1.0000 -0.0055 0.0066
vn 1.0000 -0.0000 -0.0000
vn 0.9967 -0.0013 0.0810
vn 0.9989 0.0459 -0.0010
vn 1.0000 -0.0000 -0.0001
vn 1.0000 0.0003 -0.0000
vn 0.9999 0.0143 0.0019
vn 1.0000 0.0016 0.0026
vn 0.9990 -0.0437 0.0006
vn 1.0000 -0.0000 0.0001
vn 1.0000 0.0005 0.0017
vn 1.0000 -0.0020 0.0016
vn 1.0000 -0.0066 0.0013
vn 1.0000 0.0002 0.0008
vn 1.0000 0.0012 0.0032
vn 1.0000 -0.0003 0.0022
vn 0.9669 0.2542 0.0215
vn 1.0000 -0.0006 0.0003
vn 1.0000 0.0009 -0.0001
vn 1.0000 0.0011 -0.0002
vn 1.0000 0.0001 0.0004
vn 1.0000 0.0016 -0.0002
vn 1.0000 0.0011 -0.0001
vn 0.9938 0.0058 -0.1113
vn 0.9996 -0.0080 -0.0276
vn 0.9954 -0.0132 -0.0949
vn 1.0000 -0.0075 -0.0048
vn 0.9999 0.0025 0.0147
vn 0.9900 -0.0821 -0.1148
vn 0.9999 0.0020 0.0168
vn 0.9999 -0.0009 0.0141
vn 0.9987 -0.0501 0.0013
vn 0.9997 -0.0227 0.0061
vn 0.9999 0.0005 0.0119
vn 0.9969 -0.0784 0.0049
vn 0.9972 -0.0683 -0.0318
vn 0.9817 0.1798 0.0633
vn 0.9889 -0.1487 -0.0085
vn 1.0000 -0.0016 0.0040
vn 0.9993 -0.0363 0.0002
vn 0.9982 -0.0585 -0.0140
vn 0.0010 0.1700 0.9854
vn 1.0000 -0.0088 0.0010
vn 1.0000 -0.0017 0.0040
vn 0.9997 -0.0242 -0.0034
vn 1.0000 -0.0043 0.0019
vn 1.0000 -0.0009 0.0037
vn 1.0000 0.0016 0.0040
vn 1.0000 -0.0026 0.0023
vn 0.0006 0.7384 -0.6744
vn 1.0000 -0.0012 0.0036
vn -0.9903 -0.1392 -0.0020
vn -1.0000 0.0022 -0.0068
vn -0.9996 0.0271 -0.0050
vn -1.0000 0.0032 -0.0054
vn -0.9967 0.0013 -0.0810
vn -1.0000 -0.0000 -0.0000
vn -0.9772 -0.1373 0.1617
vn -0.9994 -0.0357 0.0033
vn -0.9995 -0.0322 -0.0007
vn -0.9994 -0.0337 -0.0001
vn -1.0000 -0.0000 0.0001
vn -1.0000 -0.0003 -0.0000
vn -0.9999 -0.0143 -0.0019
vn -1.0000 -0.0016 -0.0026
vn -0.9990 0.0437 -0.0006
vn -1.0000 -0.0000 -0.0001
vn -1.0000 -0.0005 -0.0017
vn -1.0000 0.0020 -0.0016
vn -1.0000 0.0066 -0.0012
vn -1.0000 -0.0002 -0.0008
vn -1.0000 -0.0012 -0.0032
vn -1.0000 0.0003 -0.0022
vn -0.9669 -0.2541 -0.0215
vn -1.0000 0.0006 -0.0003
vn -1.0000 -0.0009 0.0001
vn -0.5431 0.0076 0.8396
vn -1.0000 0.0016 -0.0040
vn -1.0000 -0.0011 0.0002
vn -1.0000 -0.0015 0.0001
vn -1.0000 0.0017 -0.0040
vn -0.9889 0.1485 0.0085
vn -0.9993 0.0363 -0.0002
vn -1.0000 -0.0001 -0.0004
vn -1.0000 -0.0006 -0.0039
vn -0.0006 -0.7384 0.6743
vn -1.0000 0.0012 -0.0036
vn -0.9997 -0.0228 -0.0084
vn -0.9963 -0.0856 -0.0050
vn -1.0000 0.0062 -0.0071
vn -1.0000 0.0019 -0.0067
vn -0.9996 0.0259 -0.0077
vn -0.0011 -0.1700 -0.9854
vn -1.0000 0.0039 -0.0041
vn -0.9938 -0.0058 0.1113
vn -0.9997 0.0240 -0.0049
vn -0.9997 0.0228 -0.0047
vn -0.9945 -0.0046 0.1045
vn -0.9999 0.0067 0.0107
vn -1.0000 0.0056 -0.0033
vn -0.9987 0.0501 -0.0013
vn -0.9940 0.0605 -0.0910
vn -0.9969 0.0784 -0.0049
vn -0.9996 0.0267 -0.0071
vn -0.9972 0.0683 0.0318
vn 0.0043 -0.4187 -0.9081
vn 0.0054 0.2298 -0.9732
vn -0.0013 -0.9996 0.0278
vn 0.0054 0.2297 -0.9733
vn -0.0050 0.1702 0.9854
vn -0.0030 -0.9295 0.3689
vt 0.000000 0.000000
s 0
f 26/1/1 79/1/1 82/1/1
f 79/1/2 22/1/2 77/1/2
f 20/1/3 74/1/3 22/1/3
f 83/1/4 80/1/4 58/1/4
f 166/1/5 108/1/5 110/1/5
f 162/1/6 106/1/6 108/1/6
f 104/1/7 106/1/7 160/1/7
f 103/1/8 154/1/8 155/1/8
f 79/1/9 166/1/9 82/1/9
f 50/1/10 135/1/10 54/1/10
f 19/1/11 105/1/11 21/1/11
f 28/1/12 117/1/12 171/1/12
f 83/1/13 165/1/13 81/1/13
f 55/1/14 136/1/14 53/1/14
f 20/1/15 106/1/15 104/1/15
f 84/1/16 166/1/16 167/1/16
f 56/1/17 136/1/17 138/1/17
f 21/1/18 107/1/18 23/1/18
f 85/1/19 169/1/19 168/1/19
f 57/1/20 111/1/20 139/1/20
f 22/1/21 108/1/21 106/1/21
f 87/1/22 168/1/22 149/1/22
f 58/1/23 139/1/23 140/1/23
f 25/1/24 107/1/24 109/1/24
f 9/1/25 94/1/25 95/1/25
f 59/1/26 112/1/26 29/1/26
f 24/1/27 110/1/27 108/1/27
f 84/1/9 169/1/9 86/1/9
f 60/1/28 140/1/28 142/1/28
f 27/1/29 109/1/29 111/1/29
f 61/1/30 141/1/30 59/1/30
f 3/1/31 112/1/31 89/1/31
f 69/1/32 154/1/32 152/1/32
f 62/1/33 143/1/33 61/1/33
f 35/1/34 113/1/34 114/1/34
f 48/1/35 133/1/35 129/1/35
f 62/1/36 145/1/36 144/1/36
f 36/1/37 114/1/37 115/1/37
f 8/1/38 170/1/38 151/1/38
f 63/1/39 146/1/39 145/1/39
f 37/1/40 113/1/40 33/1/40
f 26/1/41 171/1/41 110/1/41
f 64/1/42 147/1/42 146/1/42
f 31/1/43 118/1/43 117/1/43
f 34/1/44 172/1/44 173/1/44
f 83/1/45 149/1/45 148/1/45
f 37/1/46 119/1/46 116/1/46
f 13/1/47 170/1/47 14/1/47
f 67/1/48 142/1/48 150/1/48
f 16/1/49 98/1/49 12/1/49
f 8/1/50 92/1/50 5/1/50
f 40/1/51 122/1/51 41/1/51
f 32/1/52 115/1/52 172/1/52
f 69/1/53 153/1/53 70/1/53
f 42/1/54 122/1/54 123/1/54
f 1/1/55 89/1/55 88/1/55
f 56/1/56 134/1/56 52/1/56
f 68/1/32 155/1/32 154/1/32
f 42/1/57 124/1/57 43/1/57
f 4/1/58 90/1/58 91/1/58
f 54/1/59 137/1/59 55/1/59
f 71/1/60 156/1/60 155/1/60
f 43/1/61 125/1/61 44/1/61
f 5/1/62 90/1/62 2/1/62
f 67/1/63 157/1/63 66/1/63
f 66/1/64 147/1/64 65/1/64
f 44/1/65 126/1/65 45/1/65
f 7/1/66 93/1/66 94/1/66
f 75/1/67 159/1/67 74/1/67
f 74/1/9 158/1/9 73/1/9
f 46/1/68 126/1/68 127/1/68
f 10/1/69 95/1/69 96/1/69
f 38/1/43 173/1/43 118/1/43
f 75/1/53 153/1/53 160/1/53
f 46/1/70 128/1/70 47/1/70
f 11/1/71 96/1/71 97/1/71
f 1/1/72 121/1/72 40/1/72
f 72/1/73 161/1/73 156/1/73
f 39/1/74 129/1/74 119/1/74
f 12/1/75 99/1/75 13/1/75
f 16/1/76 103/1/76 174/1/76
f 73/1/9 120/1/9 77/1/9
f 30/1/77 131/1/77 49/1/77
f 15/1/78 97/1/78 100/1/78
f 47/1/79 130/1/79 30/1/79
f 49/1/80 132/1/80 50/1/80
f 15/1/81 101/1/81 17/1/81
f 76/1/82 163/1/82 161/1/82
f 78/1/83 164/1/83 163/1/83
f 6/1/84 91/1/84 93/1/84
f 17/1/85 102/1/85 19/1/85
f 77/1/9 162/1/9 79/1/9
f 81/1/86 164/1/86 80/1/86
f 51/1/87 134/1/87 133/1/87
f 18/1/88 104/1/88 103/1/88
f 82/1/89 84/1/89 26/1/89
f 26/1/1 24/1/1 79/1/1
f 79/1/90 24/1/90 22/1/90
f 20/1/3 70/1/3 75/1/3
f 74/1/91 73/1/91 77/1/91
f 20/1/3 75/1/3 74/1/3
f 74/1/92 77/1/92 22/1/92
f 1/1/93 40/1/93 41/1/93
f 41/1/93 42/1/93 43/1/93
f 41/1/93 43/1/93 44/1/93
f 29/1/94 3/1/94 1/1/94
f 1/1/93 41/1/93 44/1/93
f 45/1/93 46/1/93 47/1/93
f 1/1/93 44/1/93 45/1/93
f 29/1/95 1/1/95 45/1/95
f 45/1/93 47/1/93 30/1/93
f 49/1/96 50/1/96 54/1/96
f 45/1/97 30/1/97 49/1/97
f 29/1/98 45/1/98 49/1/98
f 54/1/93 55/1/93 53/1/93
f 29/1/99 49/1/99 54/1/99
f 62/1/93 61/1/93 59/1/93
f 59/1/100 29/1/100 54/1/100
f 54/1/93 53/1/93 56/1/93
f 56/1/93 52/1/93 51/1/93
f 56/1/101 51/1/101 48/1/101
f 59/1/102 54/1/102 56/1/102
f 64/1/93 63/1/93 62/1/93
f 66/1/93 65/1/93 64/1/93
f 67/1/93 66/1/93 64/1/93
f 59/1/103 56/1/103 48/1/103
f 59/1/104 48/1/104 39/1/104
f 67/1/93 64/1/93 62/1/93
f 60/1/93 67/1/93 62/1/93
f 60/1/93 62/1/93 59/1/93
f 27/1/101 57/1/101 58/1/101
f 58/1/93 60/1/93 59/1/93
f 37/1/105 33/1/105 35/1/105
f 36/1/106 32/1/106 34/1/106
f 37/1/107 35/1/107 36/1/107
f 58/1/108 59/1/108 39/1/108
f 23/1/109 25/1/109 27/1/109
f 37/1/110 36/1/110 34/1/110
f 37/1/111 34/1/111 38/1/111
f 23/1/112 27/1/112 58/1/112
f 39/1/113 37/1/113 38/1/113
f 39/1/114 38/1/114 31/1/114
f 11/1/115 15/1/115 17/1/115
f 9/1/93 10/1/93 11/1/93
f 4/1/93 6/1/93 7/1/93
f 7/1/93 9/1/93 11/1/93
f 7/1/116 11/1/116 17/1/116
f 2/1/93 4/1/93 7/1/93
f 5/1/93 2/1/93 7/1/93
f 7/1/117 17/1/117 19/1/117
f 5/1/118 7/1/118 19/1/118
f 13/1/93 14/1/93 8/1/93
f 8/1/119 5/1/119 19/1/119
f 8/1/120 19/1/120 21/1/120
f 12/1/93 13/1/93 8/1/93
f 12/1/121 8/1/121 21/1/121
f 16/1/122 12/1/122 21/1/122
f 70/1/123 20/1/123 18/1/123
f 18/1/124 16/1/124 21/1/124
f 18/1/125 21/1/125 23/1/125
f 69/1/126 70/1/126 18/1/126
f 68/1/127 69/1/127 18/1/127
f 18/1/128 23/1/128 58/1/128
f 58/1/129 39/1/129 31/1/129
f 28/1/130 26/1/130 84/1/130
f 58/1/131 31/1/131 28/1/131
f 68/1/132 18/1/132 58/1/132
f 76/1/133 72/1/133 71/1/133
f 71/1/134 68/1/134 58/1/134
f 28/1/130 84/1/130 86/1/130
f 28/1/135 86/1/135 85/1/135
f 76/1/136 71/1/136 58/1/136
f 78/1/137 76/1/137 58/1/137
f 58/1/138 28/1/138 85/1/138
f 58/1/139 85/1/139 87/1/139
f 80/1/140 78/1/140 58/1/140
f 83/1/141 81/1/141 80/1/141
f 58/1/142 87/1/142 83/1/142
f 110/1/143 167/1/143 166/1/143
f 166/1/5 162/1/5 108/1/5
f 162/1/144 120/1/144 106/1/144
f 106/1/145 120/1/145 158/1/145
f 106/1/146 158/1/146 159/1/146
f 160/1/7 153/1/7 104/1/7
f 106/1/7 159/1/7 160/1/7
f 88/1/147 89/1/147 112/1/147
f 141/1/148 143/1/148 144/1/148
f 121/1/149 88/1/149 112/1/149
f 122/1/150 121/1/150 112/1/150
f 124/1/148 123/1/148 122/1/148
f 125/1/148 124/1/148 122/1/148
f 125/1/151 122/1/151 112/1/151
f 128/1/148 127/1/148 126/1/148
f 126/1/152 125/1/152 112/1/152
f 130/1/148 128/1/148 126/1/148
f 135/1/153 132/1/153 131/1/153
f 131/1/154 130/1/154 126/1/154
f 131/1/155 126/1/155 112/1/155
f 136/1/148 137/1/148 135/1/148
f 135/1/156 131/1/156 112/1/156
f 135/1/157 112/1/157 141/1/157
f 138/1/148 136/1/148 135/1/148
f 133/1/148 134/1/148 138/1/148
f 129/1/158 133/1/158 138/1/158
f 138/1/159 135/1/159 141/1/159
f 144/1/148 145/1/148 146/1/148
f 146/1/148 147/1/148 157/1/148
f 146/1/148 157/1/148 150/1/148
f 129/1/160 138/1/160 141/1/160
f 119/1/161 129/1/161 141/1/161
f 144/1/148 146/1/148 150/1/148
f 144/1/148 150/1/148 142/1/148
f 141/1/148 144/1/148 142/1/148
f 140/1/158 139/1/158 111/1/158
f 141/1/148 142/1/148 140/1/148
f 114/1/162 113/1/162 116/1/162
f 173/1/163 172/1/163 115/1/163
f 115/1/164 114/1/164 116/1/164
f 119/1/165 141/1/165 140/1/165
f 111/1/166 109/1/166 107/1/166
f 173/1/167 115/1/167 116/1/167
f 117/1/168 118/1/168 173/1/168
f 167/1/169 110/1/169 171/1/169
f 117/1/170 173/1/170 116/1/170
f 169/1/169 167/1/169 171/1/169
f 117/1/171 116/1/171 119/1/171
f 168/1/172 169/1/172 171/1/172
f 117/1/173 119/1/173 140/1/173
f 149/1/169 168/1/169 171/1/169
f 171/1/174 117/1/174 140/1/174
f 140/1/175 111/1/175 107/1/175
f 149/1/176 171/1/176 140/1/176
f 164/1/177 165/1/177 148/1/177
f 148/1/178 149/1/178 140/1/178
f 148/1/179 140/1/179 107/1/179
f 164/1/180 148/1/180 107/1/180
f 164/1/181 107/1/181 105/1/181
f 163/1/182 164/1/182 105/1/182
f 163/1/183 105/1/183 102/1/183
f 155/1/184 156/1/184 161/1/184
f 161/1/185 163/1/185 102/1/185
f 101/1/186 100/1/186 97/1/186
f 161/1/187 102/1/187 101/1/187
f 155/1/188 161/1/188 101/1/188
f 101/1/189 97/1/189 96/1/189
f 96/1/148 95/1/148 94/1/148
f 94/1/148 93/1/148 91/1/148
f 91/1/148 90/1/148 92/1/148
f 151/1/148 170/1/148 99/1/148
f 91/1/148 92/1/148 151/1/148
f 101/1/190 96/1/190 94/1/190
f 94/1/148 91/1/148 151/1/148
f 151/1/148 99/1/148 98/1/148
f 94/1/148 151/1/148 98/1/148
f 155/1/191 101/1/191 94/1/191
f 94/1/148 98/1/148 174/1/148
f 103/1/192 104/1/192 153/1/192
f 155/1/193 94/1/193 174/1/193
f 103/1/194 153/1/194 152/1/194
f 155/1/195 174/1/195 103/1/195
f 103/1/196 152/1/196 154/1/196
f 79/1/9 162/1/9 166/1/9
f 50/1/10 132/1/10 135/1/10
f 19/1/197 102/1/197 105/1/197
f 28/1/12 31/1/12 117/1/12
f 83/1/13 148/1/13 165/1/13
f 55/1/14 137/1/14 136/1/14
f 20/1/15 22/1/15 106/1/15
f 84/1/198 82/1/198 166/1/198
f 56/1/17 53/1/17 136/1/17
f 21/1/18 105/1/18 107/1/18
f 85/1/19 86/1/19 169/1/19
f 57/1/20 27/1/20 111/1/20
f 22/1/21 24/1/21 108/1/21
f 87/1/22 85/1/22 168/1/22
f 58/1/23 57/1/23 139/1/23
f 25/1/24 23/1/24 107/1/24
f 9/1/199 7/1/199 94/1/199
f 59/1/26 141/1/26 112/1/26
f 24/1/27 26/1/27 110/1/27
f 84/1/9 167/1/9 169/1/9
f 60/1/28 58/1/28 140/1/28
f 27/1/29 25/1/29 109/1/29
f 61/1/30 143/1/30 141/1/30
f 3/1/31 29/1/31 112/1/31
f 69/1/32 68/1/32 154/1/32
f 62/1/33 144/1/33 143/1/33
f 35/1/34 33/1/34 113/1/34
f 48/1/35 51/1/35 133/1/35
f 62/1/36 63/1/36 145/1/36
f 36/1/37 35/1/37 114/1/37
f 8/1/38 14/1/38 170/1/38
f 63/1/39 64/1/39 146/1/39
f 37/1/40 116/1/40 113/1/40
f 26/1/41 28/1/41 171/1/41
f 64/1/42 65/1/42 147/1/42
f 31/1/43 38/1/43 118/1/43
f 34/1/44 32/1/44 172/1/44
f 83/1/45 87/1/45 149/1/45
f 37/1/46 39/1/46 119/1/46
f 13/1/47 99/1/47 170/1/47
f 67/1/48 60/1/48 142/1/48
f 16/1/49 174/1/49 98/1/49
f 8/1/50 151/1/50 92/1/50
f 40/1/51 121/1/51 122/1/51
f 32/1/52 36/1/52 115/1/52
f 69/1/53 152/1/53 153/1/53
f 42/1/54 41/1/54 122/1/54
f 1/1/55 3/1/55 89/1/55
f 56/1/56 138/1/56 134/1/56
f 68/1/32 71/1/32 155/1/32
f 42/1/57 123/1/57 124/1/57
f 4/1/58 2/1/58 90/1/58
f 54/1/59 135/1/59 137/1/59
f 71/1/83 72/1/83 156/1/83
f 43/1/61 124/1/61 125/1/61
f 5/1/62 92/1/62 90/1/62
f 67/1/63 150/1/63 157/1/63
f 66/1/64 157/1/64 147/1/64
f 44/1/65 125/1/65 126/1/65
f 7/1/66 6/1/66 93/1/66
f 75/1/67 160/1/67 159/1/67
f 74/1/200 159/1/200 158/1/200
f 46/1/68 45/1/68 126/1/68
f 10/1/69 9/1/69 95/1/69
f 38/1/43 34/1/43 173/1/43
f 75/1/53 70/1/53 153/1/53
f 46/1/70 127/1/70 128/1/70
f 11/1/71 10/1/71 96/1/71
f 1/1/72 88/1/72 121/1/72
f 72/1/201 76/1/201 161/1/201
f 39/1/74 48/1/74 129/1/74
f 12/1/75 98/1/75 99/1/75
f 16/1/76 18/1/76 103/1/76
f 73/1/9 158/1/9 120/1/9
f 30/1/77 130/1/77 131/1/77
f 15/1/78 11/1/78 97/1/78
f 47/1/79 128/1/79 130/1/79
f 49/1/80 131/1/80 132/1/80
f 15/1/81 100/1/81 101/1/81
f 76/1/60 78/1/60 163/1/60
f 78/1/60 80/1/60 164/1/60
f 6/1/84 4/1/84 91/1/84
f 17/1/85 101/1/85 102/1/85
f 77/1/9 120/1/9 162/1/9
f 81/1/86 165/1/86 164/1/86
f 51/1/202 52/1/202 134/1/202
f 18/1/88 20/1/88 104/1/88
